<svg xmlns="http://www.w3.org/2000/svg" version="1.1" xmlns:xlink="http://www.w3.org/1999/xlink" width="2000"
    height="1500" viewBox="0 0 2000 1500">
    <rect width="2000" height="1500" x="0" y="0" id="background" stroke="transparent" fill="#ffffff"></rect><svg
        xml:space="preserve" width="1500" height="1125" data-version="2" data-id="lg_F4HMVqSKfnd0FJrPWp"
        viewBox="0 0 571 571" x="250" y="187.5">
        <rect width="100%" height="100%" fill="transparent"></rect>
        <path fill="#112a46"
            d="M562.152 282.846v.415zm-553.979.222v.222-.503zm555.459.592v-1.184c-.933-56.61-30.991-106.441-80.853-133.703a153.9 153.9 0 0 1-61.212-61.213C393.876 36.915 342.89 6.693 285.17 6.693h-.829c-57.38.296-108.01 30.458-135.568 80.867a153.9 153.9 0 0 1-61.213 61.213c-49.965 27.32-80.038 77.3-80.867 134.058v2.339c0 57.72 30.222 108.706 80.867 136.397a153.9 153.9 0 0 1 61.213 61.212c27.558 50.41 78.188 80.572 135.568 80.868h.829c57.705 0 108.706-30.222 136.397-80.868a153.9 153.9 0 0 1 61.212-61.212c50.646-27.691 80.868-78.677 80.868-136.397zm-555.444-.37v-.503zm553.964-.03v-.414z">
        </path>
        <path fill="#fff"
            d="M564.344 283.166v.417zm-557.722.224v.223-.506zm559.222.59v-1.191c-.939-56.993-31.2-107.161-81.399-134.607a154.96 154.96 0 0 1-61.626-61.626C394.94 35.568 343.61 5.142 285.5 5.142h-.834c-57.767.298-108.74 30.664-136.484 81.414a154.96 154.96 0 0 1-61.626 61.626c-50.303 27.505-80.58 77.823-81.414 134.964v2.354c0 58.11 30.426 109.44 81.414 137.319a154.96 154.96 0 0 1 61.626 61.626c27.744 50.75 78.717 81.116 136.484 81.414h.834c58.095 0 109.44-30.426 137.319-81.414a154.96 154.96 0 0 1 61.626-61.626C535.433 394.94 565.86 343.61 565.86 285.5zm-1.49-.402a10.147 10.147 0 0 1-20.294-.193c0-5.603 4.56-10.162 10.162-10.162s10.028 4.44 10.132 9.938zM421.522 87.271a156 156 0 0 0 62.208 62.207c48.097 26.314 77.718 73.68 80.445 127.857a11.682 11.682 0 0 0-20.294.656c-2.503-50.645-30.187-94.928-75.14-119.513a143.04 143.04 0 0 1-56.963-56.963 144.53 144.53 0 0 0-53.03-55.338A143.8 143.8 0 0 0 290.15 26.3a11.25 11.25 0 0 0 .298-19.594c55.503 1.67 104.24 31.514 131.075 80.565M542.57 285.5c0 53.192-27.863 100.202-74.545 125.726a144.53 144.53 0 0 0-57.543 57.543c-25.524 46.682-72.534 74.545-125.727 74.545S184.568 515.452 159.03 468.77a144.53 144.53 0 0 0-57.544-57.543C54.804 385.703 26.941 338.693 26.941 285.5s27.863-100.187 74.544-125.726a144.53 144.53 0 0 0 57.544-57.544c25.539-46.681 72.533-74.544 125.726-74.544a143.04 143.04 0 0 1 73.234 19.772 143.04 143.04 0 0 1 52.493 54.772 144.53 144.53 0 0 0 57.543 57.544c46.682 25.539 74.545 72.533 74.545 125.726M284.83 6.632a9.804 9.804 0 1 1-.179 0zM87.27 149.478a156 156 0 0 0 62.208-62.207C176.06 38.697 224.112 8.956 278.974 6.766a11.19 11.19 0 0 0-5.498 9.655c0 4.113 2.384 7.972 5.886 9.879-51.51 1.803-96.701 29.636-121.63 75.215a143.04 143.04 0 0 1-56.962 56.963c-45.013 24.615-72.712 69.002-75.155 119.721a10.877 10.877 0 0 0-18.79-.61c2.623-54.281 32.274-101.753 80.446-128.11M6.632 283.384v-.283c.149-5.052 4.291-9.134 9.387-9.134s9.417 4.231 9.417 9.417c0 5.185-4.217 9.416-9.417 9.416s-9.283-4.097-9.387-9.193zM149.478 483.73a156 156 0 0 0-62.207-62.208C37.773 394.45 7.839 345.072 6.66 288.928a10.877 10.877 0 0 0 18.834-.134c1.118 52.389 29.085 98.46 75.275 123.73a143.04 143.04 0 0 1 56.963 56.963c24.928 45.579 70.12 73.412 121.629 75.215a11.25 11.25 0 0 0-.388 19.534c-54.862-2.19-102.914-31.931-129.496-80.505m135.352 80.639h-.179c-5.349-.06-9.685-4.426-9.685-9.79s4.396-9.774 9.79-9.774a9.79 9.79 0 0 1 .074 19.564m198.9-142.847a156 156 0 0 0-62.208 62.208c-26.834 49.05-75.557 78.895-131.075 80.564a11.22 11.22 0 0 0-.298-19.593c51.51-1.803 96.701-29.636 121.629-75.215a143.04 143.04 0 0 1 56.963-56.963c46.13-25.226 74.082-71.207 75.274-123.506a11.667 11.667 0 0 0 20.31.134c-1.238 56.039-31.172 105.328-80.595 132.371">
        </path>
        <path fill="#fff"
            d="m190.85 235.96-3.67 2.48q1.24 2.49 3.21 4.68 1.97 2.18 4.59 3.51 2.62 1.32 5.7 1.32 2.26 0 4.34-.76 2.08-.75 3.73-2.16 1.65-1.4 2.59-3.4.95-2 .95-4.48 0-2.59-.92-4.46-.92-1.86-2.35-3.18-1.43-1.33-3.11-2.19-1.67-.86-3.18-1.4-3.3-1.14-5.21-2.3-1.92-1.16-2.73-2.48-.81-1.33-.81-2.89 0-1.84 1.4-3.32 1.41-1.49 4.49-1.49 2.21 0 3.75.87 1.54.86 2.62 2.21t1.78 2.75l3.94-2.26q-.92-2-2.54-3.81t-3.91-2.97q-2.3-1.16-5.37-1.16-3.19 0-5.67 1.27-2.49 1.27-3.89 3.48-1.41 2.21-1.41 5.02 0 2.59 1 4.38 1 1.78 2.57 2.99 1.56 1.22 3.29 2t3.13 1.27q2.16.76 4.08 1.7 1.92.95 3.11 2.46 1.18 1.51 1.18 4.05 0 2.59-1.83 4.26-1.84 1.68-4.86 1.68-2.27 0-4.05-.97-1.78-.98-3.21-2.7-1.44-1.73-2.73-4m33.42-4.22-1.62 4.32h19.98l-1.62-4.32zm1.89 1.4 6.38-15.01 6.48 15.23.43 1.08 5.51 12.96h5.13l-17.55-39.69-17.55 39.69h5.13l5.61-13.29zm30.95 14.26 2.8-25.54 12.32 22.03 12.31-22.03 2.81 25.54h4.59l-4.59-39.69-15.12 27.38-15.12-27.38-4.59 39.69zm46.54-15.66-1.62 4.32h19.98l-1.62-4.32zm1.89 1.4 6.38-15.01 6.48 15.23.43 1.08 5.51 12.96h5.13l-17.55-39.69-17.55 39.69h5.13l5.61-13.29zm54.23-23.53h-5.13l-9.77 17.49-9.72-17.49h-5.13l12.58 21.54v16.26h4.59V231.1zm7.12 33.48v4.32h19.06v-4.32zm0-33.48v4.32h19.06v-4.32zm0 15.12v4.32h17.98v-4.32zm2.05-15.12h-4.59v37.8h4.59zm-109.77 53.7h-4.59v37.8h4.59zm20.52 0h-5.67l-16.25 17.82 17.06 19.98h5.67l-17.17-20.09zm8.11 18.89q0-4.27 1.86-7.62 1.87-3.35 5.11-5.29t7.34-1.94q4.16 0 7.37 1.94 3.22 1.94 5.08 5.29t1.86 7.62q0 4.26-1.86 7.61t-5.08 5.29q-3.21 1.95-7.37 1.95-4.1 0-7.34-1.95-3.24-1.94-5.11-5.29-1.86-3.35-1.86-7.61m-4.86 0q0 4.1 1.43 7.66 1.43 3.57 4.03 6.19 2.59 2.62 6.1 4.1 3.51 1.49 7.61 1.49 4.16 0 7.64-1.49 3.49-1.48 6.08-4.1t4.02-6.19q1.43-3.56 1.43-7.66 0-4.16-1.43-7.7t-4.02-6.15q-2.59-2.62-6.08-4.11-3.48-1.48-7.64-1.48-4.1 0-7.61 1.48-3.51 1.49-6.1 4.11-2.6 2.61-4.03 6.15t-1.43 7.7m-115.99 61.15-3.67 2.48q1.24 2.48 3.21 4.67 1.98 2.19 4.59 3.51 2.62 1.32 5.7 1.32 2.27 0 4.35-.75 2.08-.76 3.72-2.16 1.65-1.41 2.6-3.4.94-2 .94-4.49 0-2.59-.92-4.45-.91-1.86-2.35-3.19-1.43-1.32-3.1-2.18-1.67-.87-3.19-1.41-3.29-1.13-5.21-2.29-1.91-1.16-2.72-2.49-.81-1.32-.81-2.89 0-1.83 1.4-3.32 1.4-1.48 4.48-1.48 2.22 0 3.75.86 1.54.87 2.62 2.22t1.79 2.75l3.94-2.27q-.92-2-2.54-3.8-1.62-1.81-3.92-2.97-2.29-1.17-5.37-1.17-3.18 0-5.67 1.27-2.48 1.27-3.89 3.49-1.4 2.21-1.4 5.02 0 2.59 1 4.37t2.56 3q1.57 1.21 3.3 2 1.73.78 3.13 1.27 2.16.75 4.08 1.7 1.91.94 3.1 2.45 1.19 1.52 1.19 4.05 0 2.6-1.84 4.27-1.83 1.67-4.86 1.67-2.26 0-4.05-.97-1.78-.97-3.21-2.7t-2.73-3.99m33.43-4.22-1.62 4.32h19.98l-1.62-4.32zm1.89 1.41 6.37-15.01 6.48 15.22.43 1.08 5.51 12.96h5.13l-17.55-39.69-17.55 39.69h5.13l5.62-13.28zM264 317h-4.59v28.14l-28.62-30.03v39.69h4.59v-28.13L264 356.69zm11.34 18.89q0-4.42 1.97-7.74 1.97-3.33 5.16-5.22t6.91-1.89q2.7 0 4.94.71 2.24.7 4.08 1.97t3.13 2.94v-6.05q-2.37-2.1-5.18-3.13t-6.97-1.03q-3.94 0-7.37 1.44-3.43 1.43-6.02 4.05-2.59 2.61-4.05 6.18-1.46 3.56-1.46 7.77 0 4.22 1.46 7.78t4.05 6.18 6.02 4.05 7.37 1.43q4.16 0 6.97-1.02 2.81-1.03 5.18-3.13v-6.05q-1.29 1.67-3.13 2.94t-4.08 1.97-4.94.7q-3.72 0-6.91-1.89t-5.16-5.23q-1.97-3.35-1.97-7.73m36.82-3.77v4.32h25.92v-4.32zM339.59 317H335v37.8h4.59zm-25.38 0h-4.59v37.8h4.59zm39.26 22.13-1.62 4.32h19.98l-1.62-4.32zm1.89 1.41 6.37-15.01 6.48 15.22.43 1.08 5.51 12.96h5.13l-17.55-39.69-17.55 39.69h5.13l5.62-13.28zm40.39-4.37h-5.13l12.96 18.63h5.67zM388.46 317h-4.59v37.8h4.59zm-2.05 0v4.05h7.72q2.43 0 4.29.87 1.87.86 2.92 2.48t1.05 3.94q0 2.33-1.05 3.95t-2.92 2.48q-1.86.86-4.29.86h-7.72v4.05h7.72q3.67 0 6.56-1.37 2.89-1.38 4.59-3.94 1.7-2.57 1.7-6.03 0-3.51-1.7-6.04-1.7-2.54-4.59-3.92t-6.56-1.38zm-120.52 87.27v2.08h9.18v-2.08zm0-16.12v2.08h9.18v-2.08zm0 7.28v2.08h8.66v-2.08zm.99-7.28h-2.21v18.2h2.21zm12.76 12.69-1.77 1.19q.6 1.2 1.55 2.25t2.21 1.69 2.74.64q1.1 0 2.1-.37 1-.36 1.79-1.04.79-.67 1.25-1.63.45-.97.45-2.16 0-1.25-.44-2.15-.44-.89-1.13-1.53t-1.49-1.05q-.81-.42-1.54-.68-1.58-.55-2.51-1.1-.92-.56-1.31-1.2t-.39-1.39q0-.89.68-1.6.67-.72 2.15-.72 1.07 0 1.81.42t1.26 1.07.86 1.32l1.9-1.09q-.44-.96-1.22-1.83t-1.89-1.43q-1.1-.56-2.59-.56-1.53 0-2.73.61-1.19.61-1.87 1.68-.67 1.06-.67 2.41 0 1.25.48 2.11t1.23 1.44q.76.59 1.59.97.83.37 1.51.61 1.04.36 1.96.82.92.45 1.49 1.18.58.73.58 1.95 0 1.25-.89 2.05-.88.81-2.34.81-1.09 0-1.95-.47t-1.54-1.3q-.69-.83-1.32-1.92m11.75-12.69v2.08h4.68v16.12h2.21v-16.12h4.68v-2.08zm14.3 17.16q0 .57.43 1t1 .43q.6 0 1.02-.43.41-.43.41-1 0-.6-.41-1.02-.42-.41-1.02-.41-.57 0-1 .41-.43.42-.43 1.02m-39.22 17.42-8.61 9.18h12.85v-2.08h-8.3l5.8-5.9q1.07-1.09 1.74-2.47.68-1.38.68-2.78 0-.84-.34-1.75t-1.04-1.7-1.79-1.3-2.6-.51q-1.87 0-3.21.82t-2.04 2.29q-.71 1.47-.71 3.42h2.21q0-1.38.45-2.38.44-1 1.28-1.53.85-.54 2.02-.54.83 0 1.48.29t1.11.75q.45.47.68 1.04.24.58.24 1.17 0 .73-.22 1.39-.22.67-.65 1.3-.43.64-1.03 1.29m8.92.08q0-1.59.31-2.93.31-1.33.91-2.31.6-.97 1.44-1.51.85-.53 1.89-.53 1.06 0 1.9.53.83.54 1.43 1.51.59.98.91 2.31.31 1.34.31 2.93t-.31 2.92q-.32 1.34-.91 2.32-.6.97-1.43 1.51-.84.53-1.9.53-1.04 0-1.89-.53-.84-.54-1.44-1.51-.6-.98-.91-2.32-.31-1.33-.31-2.92m-2.21 0q0 2.73.86 4.84.85 2.1 2.38 3.31 1.52 1.21 3.52 1.21t3.52-1.21 2.38-3.31q.86-2.11.86-4.84t-.86-4.84q-.86-2.1-2.38-3.31t-3.52-1.21-3.52 1.21q-1.53 1.21-2.38 3.31-.86 2.11-.86 4.84m16.64-4.71q0 1.07.36 1.91.37.85 1.03 1.45t1.59.91q.92.31 2.04.31 1.11 0 2.04-.31.92-.31 1.58-.91.67-.6 1.03-1.45.36-.84.36-1.91 0-1.3-.66-2.35t-1.79-1.68q-1.13-.62-2.56-.62t-2.56.62q-1.14.63-1.8 1.68t-.66 2.35m2.1.26q0-.85.38-1.53t1.04-1.05q.66-.38 1.5-.38.85 0 1.5.38.65.37 1.03 1.05t.38 1.53q0 .86-.4 1.51-.41.65-1.07 1.02-.66.36-1.44.36t-1.45-.36q-.66-.37-1.06-1.02-.41-.65-.41-1.51m-2.75 8.61q0 1.07.43 2 .43.94 1.19 1.67.77.72 1.8 1.13 1.02.4 2.25.4 1.22 0 2.25-.4 1.02-.41 1.79-1.13.77-.73 1.2-1.67.42-.93.42-2 0-1.25-.45-2.22-.46-.98-1.25-1.64t-1.82-1-2.14-.34q-1.12 0-2.15.34t-1.82 1-1.25 1.64q-.45.97-.45 2.22m2.1-.26q0-.99.51-1.78t1.33-1.26 1.73-.47 1.73.47q.81.47 1.32 1.26t.51 1.78q0 1.12-.51 1.9t-1.32 1.19q-.82.42-1.73.42t-1.73-.42q-.82-.41-1.33-1.19t-.51-1.9m12.74-11.7v2.29l4.03-1.2v15.81h2.21v-18.46z">
        </path>
    </svg>
</svg>