<svg xmlns="http://www.w3.org/2000/svg" version="1.1" xmlns:xlink="http://www.w3.org/1999/xlink" width="2000" height="312" viewBox="0 0 2000 312"><svg xml:space="preserve" width="2000" height="312" data-version="2" data-id="lg_ArDfiGytIKXzyrfs5i" viewBox="0 0 511 312" x="0" y="0"><rect width="100%" height="100%" fill="transparent"></rect><path fill="#112a46" d="m261.708 58.68-2.394-1.674-16.254 23.292-.126-.018q-.702 0-1.296.342l-21.42-12.006-1.44 2.556 21.456 12.006c.054.9.54 1.692 1.26 2.16v30.87h2.916V85.32a2.7 2.7 0 0 0 1.08-3.366zm-19.602-23.634h1.458v6.336h-1.458zm-48.06 48.114h6.354v1.458h-6.354zm90.864 0h6.354v1.458h-6.354zm-42.804 43.416h1.458v6.336h-1.458z"></path><path fill="#112a46" d="M311.01 72.36a66.6 66.6 0 0 0-6.318-19.944l2.322-1.476-9.252-13.68-2.304 1.386a66.6 66.6 0 0 0-18.162-14.724V3.024h-69.048V24.75a66.744 66.744 0 0 0 0 116.928v23.076h69.048v-24.156a66.6 66.6 0 0 0 16.866-13.248l2.646 2.196 10.188-12.996-3.15-2.79a66.6 66.6 0 0 0 6.282-16.866h6.444V72.36zm-68.22 64.854a53.406 53.406 0 1 1-.036-106.794c29.108.535 52.425 24.284 52.425 53.397s-23.317 52.862-52.425 53.397M17.8 244.7q-6.44 0-9.72-2.41-3.28-2.4-3.28-6.17 0-3.37 3.25-3.37.64 0 1.05.06-.29.87-.18 2.44.18 3.36 2.64 5.33 2.47 1.97 6.7 1.97 3.83 0 6.12-1.79 2.29-1.8 2.29-5.28 0-2.26-1.02-3.89-1.01-1.62-2.9-3.01-1.88-1.4-5.36-3.31-3.94-2.2-6.21-3.86-2.26-1.65-3.59-3.8-1.34-2.14-1.34-5.1 0-4.76 3.48-7.13 3.48-2.38 8.82-2.38 5.22 0 8.38 1.91 3.16 1.92 3.16 5.28 0 2.44-2.32 2.67-.46.11-.75.11-.35 0-1.05-.11.18-.64.18-1.16 0-.7-.18-1.28-.23-2.49-2.37-3.88-2.15-1.4-5.51-1.4-3.08 0-5.25 1.4-2.18 1.39-2.18 4.52 0 2.2 1.1 3.86 1.11 1.65 2.96 2.93 1.86 1.27 5.28 3.19 3.65 1.97 6.03 3.71t3.83 4.06 1.45 5.39q0 2.79-1.36 5.16-1.37 2.38-4.38 3.86-3.02 1.48-7.77 1.48m48.66-3.94q.64 1.91 1.39 2.72-.99 1.1-2.73 1.1-1.1 0-1.91-.49t-1.04-1.42l-3.54-11.48h-15.2l-2.9 9.68q-.35 1.28-.35 1.92 0 .92.35 1.33-1.22.46-2.55.46-2.67 0-2.67-2.14 0-.76.58-2.61l12.3-36.08q1.91-.75 3.83-.75 2.26 0 2.78 1.74zM44.3 228.4h13.52l-6.85-22.27zm67.86 8.94q0 4.18.7 6.21-1.22 1.04-2.73 1.04-1.1 0-1.8-.69-.69-.7-.69-1.86l-.12-32.65-12.7 28.24q-1.39.53-2.55.53-1.05 0-1.86-.41-6.55-12.41-13.69-28.19l.06 27.78q0 4.35.76 6.56-.82.69-1.92.69-1.68 0-1.68-2.14l-.06-32.08q0-4.11-.35-6.43.7-.7 3.08-.7 1.56 0 2.43.93l4.82 10.15 9.34 19.37q1.16-2.55 8.06-18.27 1.74-4.12 3.01-7.02 1.28-2.9 2.09-4.7 1.22-.46 2.84-.46 1.11 0 1.95.41.84.4.9.98zm37.93 3.42q.64 1.91 1.4 2.72-.99 1.1-2.73 1.1-1.1 0-1.92-.49-.81-.49-1.04-1.42l-3.54-11.48h-15.19l-2.9 9.68q-.35 1.28-.35 1.92 0 .92.35 1.33-1.22.46-2.55.46-2.67 0-2.67-2.14 0-.76.58-2.61l12.29-36.08q1.92-.75 3.83-.75 2.26 0 2.79 1.74zm-22.15-12.36h13.51l-6.84-22.27zm53.76-20.01-11.31 21.11v7.83q0 4.01.76 6.21-.41.41-1.1.73-.7.31-1.57.31-1.22 0-1.94-.69-.73-.7-.73-1.86l-.06-12.53q-.46-.69-.63-1.04l-10.39-21.11q-.58-1.22-1.97-2.73.52-.58 1.39-1.04.87-.47 1.98-.47 1.21 0 1.91.64t1.28 1.92l9.51 20.47 8.99-19.08q.58-1.34.58-2.03 0-.87-.41-1.45 1.05-.47 2.55-.47 1.1 0 1.69.64.58.64.63 1.63 0 1.1-1.16 3.01m29.29 31.38q.47.23.73.9t.26 1.42q0 .81-.29 1.33-.29.53-.87.53h-18.44q-1.22 0-1.95-.7-.72-.7-.72-1.91l-.06-30.4q0-3.77-.75-5.97.81-.7 1.65-.96t2.35-.26h17.51q.41 0 .64.38t.23.96q0 .81-.37 1.68-.38.87-.96 1.1-8.29-1.45-15.66-1.51v15.08h14.27q.17.7.17 1.39 0 .7-.17 1.4h-14.21v17.16q7.25-.05 16.64-1.62m36.78.52q.4.76.4 1.45 0 1.34-1.1 2.18t-2.61.84q-3.77 0-5.63-5.74l-2.43-7.72q-.76-1.97-1.63-3.25-.87-1.27-2.75-2.11-1.89-.84-5.08-.84h-1.45v12.23q0 4.24.76 6.21-1.22 1.04-2.73 1.04-1.16 0-1.91-.69-.76-.7-.76-1.86l-.05-31.55q0-4-.76-6.21 1.22-1.04 2.73-1.04 1.22 0 1.94.67.73.66.73 1.88l.05 17.17 1.63-.17q3.83-.47 6.58-2.76 2.76-2.29 4.18-5.48t1.42-6.21q0-2.78-1.05-4.4 1.05-.7 2.15-.7 1.39 0 2.44 1.19 1.04 1.19 1.04 3.91 0 4.59-2.84 8.82t-8.59 6.38q3.37.52 5.25 2.15 1.89 1.62 2.93 4.4l2.73 7.78q.75 1.74 1.33 2.4.58.67 1.45.73h.18q.81 0 1.45-.7M268 244.7q-7.54 0-11.49-5.22-3.94-5.22-3.94-15.6 0-10.44 3.94-15.66Q260.46 203 268 203q7.6 0 11.54 5.22t3.94 15.66-3.94 15.63T268 244.7m0-2.15q5.16 0 7.74-4.55t2.58-14.12q0-9.63-2.58-14.18-2.58-4.56-7.74-4.56-5.11 0-7.69 4.59-2.58 4.58-2.58 14.15t2.58 14.12 7.69 4.55m47.57 2.15q-6.44 0-9.72-2.41-3.27-2.4-3.27-6.17 0-3.37 3.24-3.37.64 0 1.05.06-.29.87-.18 2.44.18 3.36 2.64 5.33 2.47 1.97 6.7 1.97 3.83 0 6.12-1.79 2.29-1.8 2.29-5.28 0-2.26-1.01-3.89-1.02-1.62-2.9-3.01-1.89-1.4-5.37-3.31-3.94-2.2-6.2-3.86-2.27-1.65-3.6-3.8-1.33-2.14-1.33-5.1 0-4.76 3.48-7.13 3.48-2.38 8.81-2.38 5.22 0 8.38 1.91 3.16 1.92 3.16 5.28 0 2.44-2.32 2.67-.46.11-.75.11-.35 0-1.04-.11.17-.64.17-1.16 0-.7-.17-1.28-.24-2.49-2.38-3.88-2.15-1.4-5.51-1.4-3.08 0-5.25 1.4-2.18 1.39-2.18 4.52 0 2.2 1.11 3.86 1.1 1.65 2.95 2.93 1.86 1.27 5.28 3.19 3.66 1.97 6.03 3.71 2.38 1.74 3.83 4.06t1.45 5.39q0 2.79-1.36 5.16-1.36 2.38-4.38 3.86t-7.77 1.48m48.66-3.94q.64 1.91 1.39 2.72-.98 1.1-2.72 1.1-1.11 0-1.92-.49t-1.04-1.42l-3.54-11.48h-15.2l-2.9 9.68q-.34 1.28-.34 1.92 0 .92.34 1.33-1.21.46-2.55.46-2.67 0-2.67-2.14 0-.76.58-2.61l12.3-36.08q1.91-.75 3.83-.75 2.26 0 2.78 1.74zm-22.16-12.36h13.52l-6.85-22.27zm31.09 16.18q-1.22 0-2.09-.69.7-2.09.7-6.56l-.06-26.56q0-4.64-.4-6.84.63-.58 2.2-.58 1.16 0 1.39.29 17.87 25.69 22.62 33.87l-.98-28.89q-.12-1.97.29-3.36.4-1.39 1.27-1.8.23-.06.81-.06.76 0 1.28.24-.06.63.06 2.32l.06 1.85v29.58q0 4.47.29 6.5-.24.29-.87.46-.64.18-1.28.18-.58 0-1.16-.24-5.68-6.9-11.86-16.21T374.67 211l.87 30.74q.06 1.28-.67 2.06-.72.78-1.71.78m48.6.12q-6.44 0-9.72-2.41-3.28-2.4-3.28-6.17 0-3.37 3.25-3.37.64 0 1.05.06-.29.87-.18 2.44.18 3.36 2.64 5.33 2.47 1.97 6.7 1.97 3.83 0 6.12-1.79 2.29-1.8 2.29-5.28 0-2.26-1.02-3.89-1.01-1.62-2.9-3.01-1.88-1.4-5.36-3.31-3.94-2.2-6.21-3.86-2.26-1.65-3.59-3.8-1.34-2.14-1.34-5.1 0-4.76 3.48-7.13 3.48-2.38 8.82-2.38 5.22 0 8.38 1.91 3.16 1.92 3.16 5.28 0 2.44-2.32 2.67-.46.11-.75.11-.35 0-1.05-.11.18-.64.18-1.16 0-.7-.18-1.28-.23-2.49-2.37-3.88-2.15-1.4-5.51-1.4-3.08 0-5.25 1.4-2.18 1.39-2.18 4.52 0 2.2 1.1 3.86 1.11 1.65 2.96 2.93 1.86 1.27 5.28 3.19 3.65 1.97 6.03 3.71t3.83 4.06 1.45 5.39q0 2.79-1.36 5.16-1.37 2.38-4.38 3.86-3.02 1.48-7.77 1.48m48.67-3.94q.64 1.91 1.39 2.72-.99 1.1-2.73 1.1-1.1 0-1.91-.49t-1.04-1.42l-3.54-11.48h-15.2l-2.9 9.68q-.35 1.28-.35 1.92 0 .92.35 1.33-1.22.46-2.55.46-2.67 0-2.67-2.14 0-.76.58-2.61l12.3-36.08q1.91-.75 3.83-.75 2.26 0 2.78 1.74zm-22.16-12.36h13.52l-6.85-22.27zm57.59 11.72q.34.69.34 1.51 0 1.39-1.16 2.17t-2.32.78q-2.14 0-3.39-1.36t-2.46-4.38L494.2 232q-.81-1.97-1.48-3.08-.67-1.1-2.06-1.88t-3.77-.78l-4.29-.06v11.31q0 1.39.17 3.19.18 1.8.58 2.84-.4.41-1.1.73-.7.31-1.57.31-1.21 0-1.97-.69-.75-.7-.81-1.86v-31.55q0-1.39-.17-3.22-.18-1.83-.58-2.99 2.43-1.27 8.52-1.27 8.3 0 12.24 2.58t3.94 8.38q0 4.18-2.4 7.08-2.41 2.9-6.47 3.94 2.03.58 3.28 2.06 1.24 1.48 2.29 3.8l2.9 6.84q.69 1.68 1.33 2.41.64.72 1.39.78 1.05 0 1.69-.75m-23.26-16.01 4.52.06q4.24-.12 6.93-2.79 2.7-2.66 2.7-7.01 0-4.76-2.58-7.02t-8.27-2.26q-2.26 0-3.3.17zm-318.86 60.25h2.51l-3.78 17.93q-.08.29-.33.5-.24.2-.62.2h-2.7q-.35 0-.61-.2-.25-.21-.31-.53l-2.91-14.01q-.11-.54-.22-1.07t-.21-1.04h-.57q-.11.51-.2 1.05-.1.54-.21 1.06l-2.89 14.01q-.08.32-.33.53-.26.2-.61.2h-2.73q-.35 0-.61-.2-.25-.21-.31-.5l-3.78-17.93h2.52l2.91 14.52q.11.52.19 1.1t.19 1.2h.62q.11-.62.22-1.19.1-.57.21-1.11l2.89-13.74q.06-.35.31-.57.26-.21.61-.21h2.59q.35 0 .6.21.24.22.32.57l2.89 13.74q.13.6.23 1.17.09.56.15 1.13h.67l.16-1.15q.08-.58.19-1.12zm11.35 5.17q1.45 0 2.47.39 1.01.39 1.52 1.31.51.91.51 2.51V303h-1.8l-.36-2.86-.16-.3v-6.1q0-1.22-.55-1.74-.55-.53-2.12-.53-1.03 0-2.58.11t-3.06.24l-.22-1.7q.92-.16 2.01-.3 1.1-.13 2.23-.21t2.11-.08m-3.3 5.37h6.72l-.02 1.73-6.29.02q-.95.03-1.33.5-.37.48-.37 1.31v.84q0 1.03.48 1.5.49.47 1.57.47.75 0 1.71-.28.96-.29 1.93-.88t1.78-1.51v1.7q-.29.38-.85.88-.55.5-1.32.97t-1.7.78-2.01.31q-1.16 0-2.05-.42t-1.39-1.24-.5-2.01v-1.43q0-1.54.95-2.39.96-.85 2.69-.85m12.58-8.94h2.3v13.42q0 .95.4 1.35.41.41 1.38.41h2l.27 1.75q-.43.11-1 .19t-1.11.12-.86.04q-1.65 0-2.51-.92-.87-.91-.87-2.64zm.22 3.89h6.26v1.81H182v-1.68zm14.35-.32q.6 0 1.33.05t1.49.19q.77.13 1.42.38l-.29 1.48q-.9-.08-1.88-.12-.99-.04-1.69-.04-1.56 0-2.48.43t-1.33 1.51q-.4 1.08-.4 3t.4 3.01q.41 1.09 1.33 1.53.92.43 2.48.43.41 0 1.05-.03.65-.03 1.39-.08.75-.05 1.42-.16l.25 1.54q-1 .35-2.18.51-1.17.16-2.33.16-2.27 0-3.65-.67-1.38-.68-1.98-2.19-.61-1.51-.61-4.05t.62-4.05 2-2.17 3.64-.66m15.27 0q3.56 0 3.56 3.61V303h-2.32v-9.21q0-1.32-.42-1.82t-1.44-.5q-1.22 0-2.43.57-1.22.56-2.89 1.64l-.11-1.64q1.54-1.16 3.05-1.84 1.51-.67 3-.67m-7.99-5.43h2.29l.03 5.21q0 .89-.07 1.67-.07.79-.2 1.38l.24.41V303h-2.29zm22.06 1.86h2.29v13.42q0 .95.41 1.35.4.41 1.37.41h2l.27 1.75q-.43.11-1 .19t-1.11.12-.86.04q-1.65 0-2.51-.92-.86-.91-.86-2.64zm.21 3.89h6.27v1.81h-8.86v-1.68zm16.74-.32q3.57 0 3.57 3.61V303h-2.33v-9.21q0-1.32-.42-1.82-.41-.5-1.44-.5-1.21 0-2.43.57-1.21.56-2.89 1.64l-.11-1.64q1.54-1.16 3.05-1.84 1.52-.67 3-.67m-7.99-5.43h2.29l.03 5.21q0 .89-.07 1.67-.06.79-.2 1.38l.24.41V303h-2.29zm21.57 5.43q1.46 0 2.47.39 1.02.39 1.53 1.31.51.91.51 2.51V303h-1.81l-.35-2.86-.16-.3v-6.1q0-1.22-.55-1.74-.56-.53-2.12-.53-1.03 0-2.58.11t-3.07.24l-.21-1.7q.92-.16 2.01-.3 1.09-.13 2.23-.21 1.13-.08 2.1-.08m-3.29 5.37h6.72l-.03 1.73-6.29.02q-.94.03-1.32.5-.38.48-.38 1.31v.84q0 1.03.49 1.5.48.47 1.56.47.76 0 1.72-.28.96-.29 1.93-.88t1.78-1.51v1.7q-.3.38-.85.88t-1.32.97-1.7.78-2.01.31q-1.17 0-2.06-.42t-1.39-1.24-.5-2.01v-1.43q0-1.54.96-2.39t2.69-.85m12.58-8.94h2.3v13.42q0 .95.4 1.35.41.41 1.38.41h2l.27 1.75q-.44.11-1 .19-.57.08-1.11.12t-.86.04q-1.65 0-2.52-.92-.86-.91-.86-2.64zm.22 3.89h6.26v1.81h-8.86v-1.68zm19.3-6.21q.43 0 1.11.01.67.02 1.38.06.7.04 1.21.12l-.19 1.7h-2.7q-1.29 0-1.82.51-.53.52-.53 1.7V303h-2.29v-15.5q0-1.24.38-2.09.37-.85 1.21-1.31t2.24-.46m-3.7 6.21h6.37v1.81h-8.88v-1.68zm8.89 0h2.26V303h-2.26zm.59-5.59h1.08q.7 0 .7.7v1.54q0 .7-.7.7h-1.08q-.7 0-.7-.7v-1.54q0-.7.7-.7m6.67 1.7h2.29v13.42q0 .95.41 1.35.4.41 1.38.41h1.99l.27 1.75q-.43.11-1 .19-.56.08-1.1.12t-.87.04q-1.64 0-2.51-.92-.86-.91-.86-2.64zm.21 3.89h6.27v1.81h-8.86v-1.68zm13.13-.32q.86 0 1.83.05t1.93.13q.96.09 1.77.22l-.19 1.67q-1.24-.05-2.5-.09-1.25-.04-2.49-.04-1.22-.03-1.92.05t-1.01.44q-.31.35-.31 1.18 0 1.03.48 1.35.49.33 1.43.54l3.84.87q1.56.38 2.31 1.16.74.78.74 2.46 0 1.62-.61 2.43t-1.85 1.08-3.16.27q-.7 0-2.09-.06-1.39-.05-3.06-.32l.16-1.68q.65.03 1.38.07.72.04 1.52.04h1.63q1.49 0 2.33-.13.83-.14 1.18-.53.36-.39.36-1.17 0-.98-.57-1.3t-1.51-.54l-3.78-.86q-1.08-.27-1.73-.72t-.95-1.16q-.29-.72-.29-1.8 0-1.54.54-2.32t1.67-1.05 2.92-.24m23.89.31h2.49l-5.27 13.88q-.32.86-.81 1.7t-1.17 1.52q-.69.69-1.62 1.12-.94.44-2.15.49l-.22-1.51q1.6-.51 2.46-1.38.86-.86 1.38-2.1l.65-1.57q.21-.54.43-1.19.21-.65.4-1.16zm-10.8 0h2.46l3.48 9.8q.14.41.27.8.14.39.22.79h.62l-.76 1.76h-.7q-.27 0-.5-.16-.23-.17-.31-.44zm21.14-.31q2.27 0 3.63.67 1.37.68 1.96 2.2.6 1.53.6 4.04t-.6 4.03q-.59 1.53-1.96 2.2-1.36.68-3.63.68-2.24 0-3.6-.68-1.37-.67-1.97-2.2-.61-1.52-.61-4.03t.61-4.04q.6-1.52 1.97-2.2 1.36-.67 3.6-.67m0 1.94q-1.43 0-2.25.44-.83.45-1.18 1.53t-.35 3q0 1.91.35 2.99t1.18 1.53q.82.45 2.25.45t2.27-.45 1.19-1.53.35-2.99q0-1.92-.35-3t-1.19-1.53q-.84-.44-2.27-.44m9.37-1.62h2.3v9.23q-.03 1.25.46 1.76.48.51 1.62.51 1.1 0 2.2-.53 1.09-.52 2.63-1.52l.3 1.59q-1.54 1.22-2.99 1.84-1.44.62-2.93.62-3.59 0-3.59-3.62zm8.97 0h2.29V303h-1.84l-.21-2.49-.24-.4zM107.52 148.92H95.8v-24.25h10.63v3.23h-6.96v6.7h5.61v3.3h-5.61v7.76h8.05zm9.32.33q-1.39 0-2.74-.34-1.36-.35-2.41-.86-1.06-.51-1.59-1.04l1.75-3.13q.37.29 1.14.77.78.48 1.8.84 1.02.37 2.05.37 1.68 0 2.82-.8 1.14-.79 1.14-2.31 0-1.25-.66-2.08-.66-.82-1.74-1.45-1.07-.62-2.31-1.2-1.23-.58-2.36-1.31-1.28-.85-2.24-2.27t-.96-3.67q0-2.21 1.01-3.63 1.01-1.41 2.67-2.12 1.67-.71 3.65-.71 1.58 0 2.7.33 1.13.33 1.89.79.75.46 1.18.82l-1.75 3.01q-.56-.6-1.68-1.11t-2.51-.51q-1.61 0-2.57.74t-.96 2.2q0 1.28.86 2.19t2.2 1.65q1.33.74 2.75 1.5t2.51 1.78q.89.8 1.52 1.98.62 1.19.62 2.68 0 2.24-1.04 3.79t-2.78 2.33q-1.75.77-3.96.77m20.03-.33h-3.67V127.9H127v-3.23h16.14v3.23h-6.27zm10.29.33q-.99 0-1.68-.67-.69-.68-.69-1.67 0-1.02.67-1.7.68-.67 1.7-.67 1.06 0 1.72.67.66.68.66 1.7 0 .99-.68 1.67-.67.67-1.7.67m219.28-1.45h-14.5l7.17-8.96q.58-.75 1.32-1.84t1.3-2.26q.57-1.18.57-2.19 0-1.6-.86-2.47-.85-.87-2.56-.87-1.19 0-2.01.52-.81.53-1.32 1.22-.5.7-.79 1.25l-2.7-1.45q.55-1.04 1.44-2.1.88-1.06 2.21-1.79 1.34-.72 3.25-.72 2.21 0 3.69.78 1.47.78 2.21 2.15.74 1.36.74 3.1 0 1.86-.91 3.8t-2.57 3.97l-3.94 4.99h8.26zm11.58.44q-2.12 0-3.6-.87t-2.41-2.4q-.93-1.52-1.35-3.53-.42-2.02-.42-4.28 0-2.35.41-4.35t1.3-3.5q.9-1.49 2.4-2.33 1.49-.84 3.67-.84 2.9 0 4.58 1.42t2.42 3.9.74 5.7q0 3.1-.77 5.62-.77 2.53-2.47 3.99-1.69 1.47-4.5 1.47m0-2.96q1.3 0 2.13-.7.82-.69 1.27-1.88t.63-2.63q.17-1.43.17-2.91 0-1.63-.17-3.08-.18-1.45-.63-2.58t-1.27-1.78q-.83-.65-2.13-.65-1.31 0-2.15.65t-1.29 1.78-.62 2.58q-.18 1.45-.18 3.08 0 1.48.18 2.91.17 1.44.62 2.61.45 1.18 1.29 1.89t2.15.71m18.7 2.96q-2 0-3.68-.82-1.68-.81-2.69-2.29-1-1.48-1-3.48 0-1.48.5-2.53.49-1.06 1.29-1.76.8-.69 1.67-1.07-1.08-.64-1.82-1.76-.74-1.11-.74-2.62 0-1.8.86-3.09.85-1.29 2.32-1.99 1.46-.69 3.29-.69 1.86 0 3.31.69 1.45.7 2.3 1.99.86 1.29.86 3.03 0 1.65-.79 2.76-.78 1.1-1.88 1.71.9.37 1.71 1.07t1.33 1.74q.53 1.04.53 2.52 0 2-1.02 3.48-1.01 1.48-2.68 2.29-1.67.82-3.67.82m0-13.29q.87 0 1.58-.43.71-.44 1.15-1.16.43-.73.43-1.6 0-1.36-.87-2.21-.87-.86-2.29-.86-1.45 0-2.32.86-.87.85-.87 2.21 0 1.34.88 2.27.89.92 2.31.92m0 10.44q1.89 0 2.97-1.1 1.09-1.1 1.09-2.72 0-1.69-1.16-2.76t-2.9-1.07-2.91 1.06q-1.18 1.06-1.18 2.77 0 1.62 1.1 2.72 1.11 1.1 2.99 1.1m16.41 2.41h-3.27v-20.99l3.27-.93z"></path></svg></svg>